# xmcd CD database file
#
# Track frame offsets:
#	183
#	15330
#	32318
#	53065
#	80145
#	93303
#	109468
#	121465
#	133805
#	151238
#	165275
#	179550
#	194095
#	206715
#	217380
#	236355
#	249265
#	265400
#
# Disc length: 3714 seconds
#
# Revision: 2
# Processed by: cddbd v1.5.2PL0 Copyright (c) Steve Scherf et al.
# Submitted via: CDex 1.60beta1-cs1
#
DISCID=fe0e8012
DTITLE=Acker Bilk - Clarinet Moods
DYEAR=1999
DGENRE=Jazz
TTITLE0=Stranger on the Shore
TTITLE1=Don't Cry For Me Argentina
TTITLE2=Bridge Over Troubled Water
TTITLE3=Nature Boy
TTITLE4=Amazing Grace
TTITLE5=You've Lost That Loving Feelin'
TTITLE6=What a Wonderful World
TTITLE7=Raindrops Keep Falling on My Head
TTITLE8=If You Go Away
TTITLE9=This Guy's in Love With You
TTITLE10=Here, There and Everywhere
TTITLE11=(They Long to Be) Close to You
TTITLE12=Going Home
TTITLE13=Makin' Whoopee
TTITLE14=Misty
TTITLE15=She
TTITLE16=Aria
TTITLE17=Auf Wiedersehen, Sweetheart
EXTD=YEAR: 1999
EXTT0=
EXTT1=
EXTT2=
EXTT3=
EXTT4=
EXTT5=
EXTT6=
EXTT7=
EXTT8=
EXTT9=
EXTT10=
EXTT11=
EXTT12=
EXTT13=
EXTT14=
EXTT15=
EXTT16=
EXTT17=
PLAYORDER=
